<svg xmlns="http://www.w3.org/2000/svg" viewBox="0 0 120 120" role="img" aria-label="GitHub">
  <rect width="120" height="120" rx="8" fill="#fffaf4"/>
  <circle cx="60" cy="58" r="42" fill="#083638"/>
  <path fill="#fffaf4" d="M60 24c-20.4 0-37 16.5-37 36.9 0 16.3 10.6 30.2 25.2 35.1 1.8.3 2.5-.8 2.5-1.7v-6.4c-10.3 2.2-12.5-4.4-12.5-4.4-1.7-4.2-4.1-5.3-4.1-5.3-3.3-2.3.3-2.2.3-2.2 3.7.3 5.7 3.8 5.7 3.8 3.3 5.6 8.7 4 10.8 3.1.3-2.4 1.3-4 2.4-5-8.2-.9-16.8-4.1-16.8-18.2 0-4 1.4-7.3 3.8-9.9-.4-.9-1.6-4.7.4-9.8 0 0 3.1-1 10.2 3.8 3-.8 6.1-1.2 9.3-1.2s6.3.4 9.3 1.2c7.1-4.8 10.2-3.8 10.2-3.8 2 5.1.8 8.9.4 9.8 2.4 2.6 3.8 5.9 3.8 9.9 0 14.1-8.6 17.3-16.8 18.2 1.3 1.1 2.5 3.4 2.5 6.9v9.6c0 1 .7 2.1 2.5 1.7C86.4 91.1 97 77.2 97 60.9 97 40.5 80.4 24 60 24Z"/>
</svg>
