<svg xmlns="http://www.w3.org/2000/svg" viewBox="0 0 240 80" role="img" aria-label="ILVO logo">
  <path d="M0 1.89h17.7v76.22H0zM37.13 1.89h17.69v59.57h31.52v16.65H37.13zM80.69 1.89h18.62l18.28 53 18.27-53h18.62l-26.25 76.22h-21.34zM161.64 39.94A39.12 39.12 0 01172.74 12 39.14 39.14 0 01201.19.74 38.21 38.21 0 01229.35 12 39.81 39.81 0 01240 39.94a39.24 39.24 0 01-11 27.93 39.24 39.24 0 01-28.45 11.4 38.41 38.41 0 01-28.16-11.4 39.57 39.57 0 01-10.75-27.93zm17.69-.57a24.3 24.3 0 005.73 16.54 22.47 22.47 0 0031.74.4 23 23 0 005.49-15.79A24.58 24.58 0 00216.8 24a20.19 20.19 0 00-15.8-6.67 21.2 21.2 0 00-15.91 6.3 22.69 22.69 0 00-5.72 15.74z" fill="#0b3d2e"/>
</svg>
