<svg xmlns="http://www.w3.org/2000/svg" viewBox="0 0 800 600" role="img" aria-label="16S rRNA sequencing icon">
  <defs>
    <linearGradient id="g" x1="0" x2="1">
      <stop offset="0" stop-color="#1d7f5d"/>
      <stop offset="1" stop-color="#2f7de1"/>
    </linearGradient>
  </defs>
  <rect width="800" height="600" rx="28" fill="#f7fbf8"/>
  <rect x="60" y="70" width="680" height="460" rx="24" fill="#ffffff" stroke="#cfe1d5" stroke-width="6"/>
  <path d="M180 150c50 0 50 80 100 80s50-80 100-80 50 80 100 80 50-80 100-80 50 80 100 80" fill="none" stroke="url(#g)" stroke-width="16" stroke-linecap="round"/>
  <path d="M180 270c50 0 50 80 100 80s50-80 100-80 50 80 100 80 50-80 100-80 50 80 100 80" fill="none" stroke="#9cc4f5" stroke-width="16" stroke-linecap="round"/>
  <g stroke="#2f7de1" stroke-width="8" stroke-linecap="round">
    <path d="M300 142v196"/>
    <path d="M400 142v196"/>
    <path d="M500 142v196"/>
  </g>
  <g fill="#1d7f5d">
    <circle cx="300" cy="180" r="12"/>
    <circle cx="400" cy="260" r="12"/>
    <circle cx="500" cy="180" r="12"/>
  </g>
  <rect x="120" y="390" width="560" height="40" rx="20" fill="#dff1e5"/>
  <text x="400" y="418" text-anchor="middle" font-family="Arial, sans-serif" font-size="24" fill="#0b3b33" font-weight="700">16S rRNA sequencing</text>
</svg>
